HIERARCHY
ROOT hip
{
	OFFSET 0.000000 0.000000 0.000000 
	CHANNELS 6 Xposition Yposition Zposition Xrotation Zrotation Yrotation
	JOINT abdomen
	{
		OFFSET 0.000000 3.402643 0.000000 
		CHANNELS 3 Xrotation Zrotation Yrotation
		JOINT chest
		{
			OFFSET 0.000000 8.438565 -0.680529 
			CHANNELS 3 Xrotation Zrotation Yrotation
			JOINT neck
			{
				OFFSET 0.000000 10.207942 -0.272212 
				CHANNELS 3 Xrotation Zrotation Yrotation
				JOINT head
				{
					OFFSET 0.000000 3.130431 0.000000 
					CHANNELS 3 Xrotation Zrotation Yrotation
					End Site
					{
						OFFSET 0.000000 3.130435 0.000000 
					}
				}
			}
			JOINT lCollar
			{
				OFFSET 3.470700 6.669187 -0.816635 
				CHANNELS 3 Yrotation Zrotation Xrotation
				JOINT lShldr
				{
					OFFSET 3.198488 0.000000 0.000000 
					CHANNELS 3 Zrotation Yrotation Xrotation
					JOINT lForeArm
					{
						OFFSET 10.139888 0.000000 0.000000 
						CHANNELS 3 Yrotation Zrotation Xrotation
						JOINT lHand
						{
							OFFSET 8.370511 0.000000 0.000000 
							CHANNELS 3 Zrotation Yrotation Xrotation
							End Site
							{
								OFFSET 4.083176 0.000000 0.000000 
							}
						}
					}
				}
			}
			JOINT rCollar
			{
				OFFSET -3.470700 6.669187 -0.816635 
				CHANNELS 3 Yrotation Zrotation Xrotation
				JOINT rShldr
				{
					OFFSET -3.198488 0.000000 0.000000 
					CHANNELS 3 Zrotation Yrotation Xrotation
					JOINT rForeArm
					{
						OFFSET -10.139888 0.000000 0.000000 
						CHANNELS 3 Yrotation Zrotation Xrotation
						JOINT rHand
						{
							OFFSET -8.370511 0.000000 0.000000 
							CHANNELS 3 Zrotation Yrotation Xrotation
							End Site
							{
								OFFSET -4.083176 0.000000 0.000000 
							}
						}
					}
				}
			}
		}
	}
	JOINT lThigh
	{
		OFFSET 5.308129 -1.633274 1.361059 
		CHANNELS 3 Xrotation Zrotation Yrotation
		JOINT lShin
		{
			OFFSET -2.041588 -20.007561 0.000000 
			CHANNELS 3 Xrotation Zrotation Yrotation
			JOINT lFoot
			{
				OFFSET 0.000000 -19.190928 -1.224953 
				CHANNELS 3 Xrotation Yrotation Zrotation
				End Site
				{
					OFFSET 0.000000 -2.449906 4.627600 
				}
			}
		}
	}
	JOINT rThigh
	{
		OFFSET -5.308129 -1.633274 1.361059 
		CHANNELS 3 Xrotation Zrotation Yrotation
		JOINT rShin
		{
			OFFSET 2.041588 -20.007561 0.000000 
			CHANNELS 3 Xrotation Zrotation Yrotation
			JOINT rFoot
			{
				OFFSET 0.000000 -19.190928 -1.224953 
				CHANNELS 3 Xrotation Yrotation Zrotation
				End Site
				{
					OFFSET 0.000000 -2.449906 4.627600 
				}
			}
		}
	}
}
MOTION
Frames: 20
Frame Time: 0.033333
0.000000 47.612320 0.000000 0.000000 -8.525390 0.000000 29.822811 -7.874106 -5.629282 -12.841797 8.925782 4.062500 31.159019 4.331389 2.386540 -12.597658 -3.134765 0.615234 2.000000 -2.000000 0.000000 -71.425781 -12.568359 -3.615404 -47.376724 -3.471400 -3.904223 34.931610 -22.511389 57.547295 -2.000000 2.000000 0.000000 86.835938 41.855473 13.307299 28.125648 4.425210 -1.792328 -32.859703 28.615469 59.039402 6.981507 24.233717 0.952269 11.427000 -4.625492 -0.580061 -20.224569 0.029779 0.040211 -15.455902 3.408090 -1.119397 0.976841 4.693951 -0.046010 13.717195 0.077776 0.938223 
0.000000 47.413582 0.000000 0.000000 -7.578125 0.000000 29.822811 -7.874106 -5.629282 -10.449218 8.798828 4.854885 29.909517 1.950737 1.077778 -15.957033 -3.085938 0.810547 2.000000 -2.000000 0.000000 -68.652351 -15.761717 -6.933594 -46.061768 -3.812299 -3.708014 36.867676 -19.319849 56.964970 -2.000000 2.000000 0.000000 84.130859 41.787109 7.018227 32.305035 4.632628 -2.162416 -32.675091 31.493937 59.897400 10.087944 22.040705 1.489984 9.674983 -4.647645 -0.491714 -22.109329 0.012347 0.075344 -18.036314 2.480329 -0.848701 5.876607 4.676011 0.047205 12.194638 0.051557 0.786410 
0.000000 47.111801 0.000000 0.000000 -6.630859 0.000000 29.822811 -7.874106 -5.629282 -8.125000 8.642578 5.605469 28.769426 -0.322702 -0.109204 -19.296875 -3.046875 0.976563 2.000000 -2.000000 0.000000 -65.673828 -18.789064 -10.491427 -44.756790 -4.212798 -3.528529 38.755653 -16.116829 56.494408 -2.000000 2.000000 0.000000 81.445313 41.533211 0.748664 36.486210 4.774569 -2.585248 -32.464657 34.353664 60.785393 13.153686 19.831833 1.931621 8.043428 -4.656398 -0.470816 -23.984337 0.025665 0.050592 -20.521597 1.630514 -0.577770 10.681425 4.664770 0.095024 10.642053 0.044004 0.688063 
0.000000 46.729057 0.000000 0.000000 -5.683593 0.000000 29.822811 -7.874106 -5.629282 -5.771486 8.457032 6.357422 27.591614 -2.737145 -1.314454 -22.636721 -2.978516 1.152344 2.000000 -2.000000 0.000000 -62.558590 -21.513672 -14.134439 -43.442501 -4.545599 -3.361950 40.595173 -12.883092 56.160309 -2.000000 2.000000 0.000000 78.955078 41.054691 -5.218194 40.588112 4.903852 -2.959958 -32.183952 37.313236 61.749405 16.099516 17.602934 2.141950 6.319583 -4.652377 -0.335283 -25.898418 -0.013419 0.071141 -23.089224 0.780661 -0.181018 15.569949 4.616778 0.166946 9.129148 0.010028 0.611160 
0.000000 46.213825 0.000000 0.000000 -4.736328 0.000000 29.822811 -7.874106 -5.629282 -3.398438 8.193360 7.099609 26.551945 -5.041728 -2.446339 -25.986328 -2.910156 1.337891 2.000000 -2.000000 0.000000 -59.052738 -24.130859 -18.144533 -42.078175 -4.935191 -3.162650 42.408073 -9.666931 55.920197 -2.000000 2.000000 0.000000 76.455078 40.371094 -11.337891 44.798981 4.976820 -3.377051 -31.828442 40.255451 62.724617 19.083908 15.356830 2.293399 4.675467 -4.678644 -0.284066 -27.910061 0.013437 0.124624 -25.616560 -0.058762 0.185873 20.439495 4.599051 0.261864 7.596088 0.014054 0.483121 
0.000000 45.647064 0.000000 0.000000 -3.798828 0.000000 29.822811 -7.874106 -5.629282 -1.074217 7.949219 7.833382 25.451971 -7.489386 -3.546365 -29.326180 -2.822265 1.494141 2.000000 -2.000000 0.000000 -55.283207 -26.513670 -22.431639 -40.740807 -5.270936 -2.878344 44.163422 -6.430687 55.786896 -2.000000 2.000000 0.000000 74.062500 39.472656 -17.357071 49.000305 5.039953 -3.794724 -31.373920 43.102745 63.802219 21.993404 13.121558 2.302831 2.981164 -4.679685 -0.150925 -29.872972 -0.037744 0.147174 -28.171175 -0.858967 0.608557 25.248610 4.526043 0.324776 6.093063 -0.021859 0.392289 
0.000000 45.242241 0.000000 0.000000 -2.861328 0.000000 29.822811 -7.874106 -5.629282 1.259766 7.666016 8.575521 24.427307 -10.015285 -4.641410 -32.675781 -2.724609 1.650391 2.000000 -2.000000 0.000000 -51.406250 -28.564453 -26.787113 -39.416023 -5.632363 -2.700958 45.910179 -3.172609 55.728027 -2.000000 2.000000 0.000000 71.953125 38.476566 -23.001734 53.054897 5.072633 -4.194592 -30.849792 46.020294 64.922447 24.883715 10.847434 2.222468 1.246431 -4.670825 -0.023740 -31.787092 -0.041774 0.050871 -30.710224 -1.669581 1.078718 30.136717 4.497114 0.366972 4.579717 -0.028766 0.288750 
0.000000 44.815334 0.000000 0.000000 -1.923828 0.000000 29.822811 -7.874106 -5.629282 3.574220 7.382813 9.239536 23.520281 -12.386544 -5.628549 -36.035160 -2.626953 1.806641 2.000000 -2.000000 0.000000 -47.099613 -30.390623 -31.572266 -38.138870 -5.991509 -2.483585 47.640285 0.058001 55.791901 -2.000000 2.000000 0.000000 69.912109 37.246094 -28.759766 57.277271 5.078762 -4.645725 -30.183790 48.980667 66.205490 27.755640 8.631632 2.009659 -0.353105 -4.675231 0.014641 -33.710892 -0.069304 0.111793 -33.260410 -2.431633 1.572302 34.936604 4.462380 0.426836 3.037172 -0.051793 0.188729 
0.000000 44.292740 0.000000 0.000000 -0.957031 0.000000 29.822811 -7.874106 -5.629282 5.966797 7.021484 9.962132 22.529964 -14.881671 -6.653018 -39.238285 -2.519531 1.962891 2.000000 -2.000000 0.000000 -42.587891 -31.904299 -36.567657 -36.841866 -6.300751 -2.249446 49.400417 3.302195 55.956161 -2.000000 2.000000 0.000000 68.095703 35.859375 -34.316399 61.488705 5.062518 -5.048365 -29.407215 51.826344 67.567047 30.616846 6.424960 1.701349 -2.118727 -4.693447 0.105027 -35.634724 -0.061675 0.105423 -35.858143 -3.222403 2.075756 39.826893 4.396978 0.452321 1.503917 -0.040931 0.089021 
0.000000 43.733345 0.000000 0.000000 0.000000 0.000000 29.822811 -7.874106 -5.629282 8.173830 6.679688 10.606605 21.677006 -17.248569 -7.610919 -42.587894 -2.402344 2.070312 2.000000 -2.000000 0.000000 -37.988277 -33.037113 -41.597118 -35.573959 -6.550336 -1.999132 51.172173 6.520096 56.202412 -2.000000 2.000000 0.000000 66.523438 34.384762 -39.545265 65.506325 5.019145 -5.491628 -28.428040 54.608288 69.083488 33.441944 4.267573 1.291875 -3.691430 -4.695546 0.171638 -37.548714 -0.127372 0.158634 -38.368793 -3.867172 2.616493 44.608616 4.338721 0.486502 0.019175 -0.006913 0.028711 
0.000000 43.733345 0.000000 0.000000 0.000000 0.000000 29.822811 -7.874106 -5.629282 9.882814 6.308595 10.811621 24.198751 -16.926664 -8.568551 -40.498051 -2.490234 2.011719 2.000000 -2.000000 0.000000 -37.988277 -33.037113 -41.597118 -40.644474 -6.368639 -2.745274 51.486050 6.045686 56.008011 -2.000000 2.000000 0.000000 66.523438 34.384762 -39.545265 69.709908 4.602416 -5.907779 -25.267921 48.850334 73.861015 33.441944 4.267573 1.291875 -3.691430 -4.695546 0.171638 -37.548714 -0.127372 0.158634 -38.368793 -3.867172 2.616493 44.608616 4.338721 0.486502 0.019175 -0.006913 0.028711 
0.000000 43.733345 0.000000 0.000000 0.000000 0.000000 29.822811 -7.874106 -5.629282 11.484378 5.976563 11.045938 26.724512 -16.519968 -9.491727 -38.466801 -2.548828 1.914063 2.000000 -2.000000 0.000000 -37.988277 -33.037113 -41.597118 -45.930931 -6.089176 -3.497940 51.799622 5.581095 55.803749 -2.000000 2.000000 0.000000 66.523438 34.384762 -39.545265 73.854332 4.164999 -6.304542 -23.121059 42.957363 77.683388 33.441944 4.267573 1.291875 -3.691430 -4.695546 0.171638 -37.548714 -0.127372 0.158634 -38.368793 -3.867172 2.616493 44.608616 4.338721 0.486502 0.019175 -0.006913 0.028711 
0.000000 43.733345 0.000000 0.000000 0.000000 0.000000 29.822811 -7.874106 -5.629282 13.144530 5.664063 11.191406 29.315094 -16.031746 -10.465751 -36.318363 -2.626953 1.826172 2.000000 -2.000000 0.000000 -37.988277 -33.037113 -41.597118 -51.198013 -5.759570 -4.232625 52.123516 5.107262 55.618572 -2.000000 2.000000 0.000000 66.523438 34.384762 -39.545265 78.007286 3.705812 -6.663274 -21.674355 36.979282 80.901894 33.441944 4.267573 1.291875 -3.691430 -4.695546 0.171638 -37.548714 -0.127372 0.158634 -38.368793 -3.867172 2.616493 44.608616 4.338721 0.486502 0.019175 -0.006913 0.028711 
0.000000 43.733345 0.000000 0.000000 0.000000 0.000000 29.822811 -7.874106 -5.629282 14.794926 5.400391 11.358340 31.846767 -15.535868 -11.393421 -34.228516 -2.675781 1.738295 2.000000 -2.000000 0.000000 -37.988277 -33.037113 -41.597118 -56.444798 -5.309362 -4.915267 52.437401 4.642799 55.404369 -2.000000 2.000000 0.000000 66.523438 34.384762 -39.545265 82.179787 3.207552 -7.024579 -20.689333 30.883728 83.777481 33.441944 4.267573 1.291875 -3.691430 -4.695546 0.171638 -37.548714 -0.127372 0.158634 -38.368793 -3.867172 2.616493 44.608616 4.338721 0.486502 0.019175 -0.006913 0.028711 
0.000000 43.733345 0.000000 0.000000 0.000000 0.000000 29.822811 -7.874106 -5.629282 16.416016 5.087891 11.495008 34.369015 -14.979819 -12.247517 -32.128910 -2.753906 1.621094 2.000000 -2.000000 0.000000 -37.988277 -33.037113 -41.597118 -61.691517 -4.848608 -5.589241 52.760700 4.188607 55.199501 -2.000000 2.000000 0.000000 66.523438 34.384762 -39.545265 86.497131 2.667508 -7.338525 -20.086697 24.741489 86.386208 33.441944 4.267573 1.291875 -3.691430 -4.695546 0.171638 -37.548714 -0.127372 0.158634 -38.368793 -3.867172 2.616493 44.608616 4.338721 0.486502 0.019175 -0.006913 0.028711 
0.000000 43.733345 0.000000 0.000000 0.000000 0.000000 29.822811 -7.874106 -5.629282 18.085941 4.707031 11.690254 36.936497 -14.346370 -13.183558 -30.087889 -2.802734 1.522960 2.000000 -2.000000 0.000000 -37.988277 -33.037113 -41.597118 -66.945412 -4.313881 -6.168382 53.085083 3.714972 54.994556 -2.000000 2.000000 0.000000 66.523438 34.384762 -39.545265 90.626472 2.133378 -7.583540 -19.794039 18.661772 88.778191 33.441944 4.267573 1.291875 -3.691430 -4.695546 0.171638 -37.548714 -0.127372 0.158634 -38.368793 -3.867172 2.616493 44.608616 4.338721 0.486502 0.019175 -0.006913 0.028711 
0.000000 43.733345 0.000000 0.000000 0.000000 0.000000 29.822811 -7.874106 -5.629282 19.726563 4.423828 11.836691 39.391201 -13.767202 -14.019485 -27.900393 -2.851562 1.416016 2.000000 -2.000000 0.000000 -37.988277 -33.037113 -41.597118 -72.160057 -3.739425 -6.739604 53.389717 3.250242 54.790787 -2.000000 2.000000 0.000000 66.523438 34.384762 -39.545265 94.794373 1.569421 -7.819982 -19.798920 12.576528 91.058075 33.441944 4.267573 1.291875 -3.691430 -4.695546 0.171638 -37.548714 -0.127372 0.158634 -38.368793 -3.867172 2.616493 44.608616 4.338721 0.486502 0.019175 -0.006913 0.028711 
0.000000 43.733345 0.000000 0.000000 0.000000 0.000000 29.822811 -7.874106 -5.629282 21.269529 4.160156 11.904297 41.778435 -13.070004 -14.794975 -25.957033 -2.910156 1.289063 2.000000 -2.000000 0.000000 -38.007813 -33.027344 -41.582031 -77.205986 -3.091654 -7.226000 53.724152 2.777194 54.575497 -2.000000 2.000000 0.000000 66.523438 34.384762 -39.545265 98.883209 1.014109 -8.036573 -20.033628 6.486920 93.293877 33.441944 4.267573 1.291875 -3.691430 -4.695546 0.171638 -37.548714 -0.127372 0.158634 -38.368793 -3.867172 2.616493 44.608616 4.338721 0.486502 0.019175 -0.006913 0.028711 
0.000000 44.182335 0.000000 0.000000 0.000000 0.000000 29.822811 -7.874106 -5.629282 18.388676 3.808594 11.777991 42.941643 -12.483598 -14.903948 -24.541016 -1.738281 0.947266 2.000000 -2.000000 0.000000 -40.761719 -35.683594 -39.468586 -71.603485 -3.543327 -6.731005 51.010120 3.482176 57.045643 -2.000000 2.000000 0.000000 66.718750 34.570313 -38.710934 91.596169 1.962187 -7.671201 -20.414835 13.238652 92.124603 33.441944 4.267573 1.291875 -3.691430 -4.695549 0.171639 -34.453053 -0.106638 0.106087 -36.387398 -3.944996 2.520339 41.843098 4.306513 0.486409 0.018071 -0.028488 0.010088 
0.000000 44.594517 0.000000 0.000000 0.000000 0.000000 29.822811 -7.874106 -5.629282 15.283206 3.466797 11.670511 44.093029 -11.904000 -14.992013 -23.134768 -0.546875 0.634767 2.000000 -2.000000 0.000000 -43.798828 -38.398434 -37.017784 -65.833977 -3.934171 -6.199482 48.244522 4.326514 59.483921 -2.000000 2.000000 0.000000 66.894531 34.755856 -37.890621 84.070557 2.884723 -7.198921 -21.009459 20.132687 90.816200 33.441944 4.267573 1.291875 -3.691430 -4.695549 0.171639 -31.279230 -0.097863 0.079740 -34.423904 -4.022780 2.428688 38.951523 4.368296 0.454899 0.025633 0.006341 0.023290 
